#!OML:ASF H:\ManfredETheater\Project 1\Capture day 1\Session 1\subject.ASF
:FULLY-SPECIFIED
:DEGREES
200
root -4.52799 16.26 -36.5219 -158.279 -22.2132 175.118
lowerback 18.3679 1.27803 3.64052
upperback -1.28189 2.73794 3.63341
thorax -11.803 1.10761 1.1988
lowerneck -16.8409 -1.04114 -1.76156
upperneck -6.38244 -2.26521 -7.07238
head 0.73067 -1.75574 -2.10616
rclavicle 9.62118e-014 0
rhumerus -26.0148 21.0542 -84.8663
rradius 83.5603
rwrist -2.30829
rhand -26.5669 2.63492
rfingers 7.12502
rthumb -0.0018087 -27.3448
lclavicle 9.62118e-014 0
lhumerus -58.2767 -7.78492 92.3764
lradius 56.3466
lwrist 20.1228
lhand -28.4158 -13.2355
lfingers 7.12502
lthumb -1.78745 16.7367
rfemur -49.1479 -5.50492 16.3042
rtibia 66.6921
rfoot -30.5151 -13.8763
rtoes -31.9439
lfemur -22.1573 -2.64757 -22.5913
ltibia 84.4632
lfoot 19.7586 2.43429
ltoes 57.3099
201
root -4.64467 16.3063 -36.9295 -158.399 -22.5087 175.646
lowerback 18.209 1.20063 4.07081
upperback -1.41862 2.7277 3.62989
thorax -11.847 1.0738 0.957896
lowerneck -16.9859 -0.98631 -1.6377
upperneck -6.16223 -2.16074 -6.88299
head 0.832264 -1.69704 -2.06579
rclavicle 1.98785e-014 -6.83819e-014
rhumerus -26.6134 21.6674 -86.3855
rradius 86.64
rwrist -2.27138
rhand -26.1955 3.25292
rfingers 7.12502
rthumb 0.356926 -26.7265
lclavicle 1.98785e-014 -6.83819e-014
lhumerus -59.5656 -8.10833 92.2933
lradius 55.8705
lwrist 18.8418
lhand -28.2416 -13.1648
lfingers 7.12502
lthumb -1.61928 16.8088
rfemur -46.7747 -5.67551 17.0808
rtibia 65.525
rfoot -31.5428 -14.2872
rtoes -32.2721
lfemur -25.2154 -1.72861 -21.9808
ltibia 87.2171
lfoot 18.5362 3.06729
ltoes 57.8744
202
root -4.75936 16.355 -37.3431 -158.565 -22.9203 176.188
lowerback 18.0118 1.12132 4.48235
upperback -1.55248 2.7069 3.6235
thorax -11.8668 1.03629 0.728221
lowerneck -17.1605 -1.00427 -1.55069
upperneck -5.92165 -2.14314 -6.60235
head 0.943503 -1.67794 -1.99447
rclavicle 3.4191e-014 -1.43125e-014
rhumerus -27.3093 22.3451 -87.9302
rradius 89.7975
rwrist -2.10433
rhand -25.8768 3.81553
rfingers 7.12502
rthumb 0.664758 -26.1632
lclavicle 3.4191e-014 -1.43125e-014
lhumerus -61.1852 -8.7567 92.3943
lradius 56.227
lwrist 18.0443
lhand -27.8719 -13.1997
lfingers 7.12502
lthumb -1.26216 16.7764
rfemur -44.2237 -5.83398 17.8952
rtibia 64.1371
rfoot -32.4214 -14.7531
rtoes -32.5742
lfemur -28.2442 -0.86871 -21.373
ltibia 89.6381
lfoot 17.3159 3.79376
ltoes 58.3337
203
root -4.87243 16.4058 -37.7628 -158.753 -23.4089 176.719
lowerback 17.7592 1.06371 4.82656
upperback -1.68506 2.69556 3.6158
thorax -11.856 1.00829 0.53355
lowerneck -17.35 -1.09959 -1.51631
upperneck -5.67056 -2.21917 -6.25562
head 1.05872 -1.70215 -1.8982
rclavicle -4.45278e-014 -2.54444e-014
rhumerus -28.0833 23.0719 -89.4474
rradius 92.9574
rwrist -1.82517
rhand -25.6629 4.34198
rfingers 7.12502
rthumb 0.871317 -25.636
lclavicle -4.45278e-014 -2.54444e-014
lhumerus -63.0263 -9.63817 92.6567
lradius 57.2685
lwrist 17.8499
lhand -27.2994 -13.27
lfingers 7.12502
lthumb -0.70928 16.7086
rfemur -41.5328 -5.95883 18.7135
rtibia 62.5399
rfoot -33.1161 -15.2634
rtoes -32.9071
lfemur -31.2464 -0.0739451 -20.8258
ltibia 91.6995
lfoot 16.1101 4.56449
ltoes 58.6782
204
root -4.98505 16.4588 -38.189 -158.941 -23.9468 177.21
lowerback 17.4351 1.04321 5.07178
upperback -1.81711 2.70646 3.6082
thorax -11.8065 0.998524 0.389994
lowerneck -17.5375 -1.2717 -1.54399
upperneck -5.41553 -2.38826 -5.8717
head 1.17358 -1.76993 -1.78497
rclavicle -4.77083e-015 1.74931e-014
rhumerus -28.923 23.8363 -90.8927
rradius 96.0672
rwrist -1.48191
rhand -25.5746 4.83158
rfingers 7.12502
rthumb 0.956624 -25.146
lclavicle -4.77083e-015 1.74931e-014
lhumerus -64.9805 -10.6497 93.0349
lradius 58.8117
lwrist 18.2366
lhand -26.5625 -13.388
lfingers 7.12502
lthumb 0.00250092 16.5917
rfemur -38.7302 -6.03014 19.4999
rtibia 60.7492
rfoot -33.5924 -15.7804
rtoes -33.2849
lfemur -34.213 0.642804 -20.3909
ltibia 93.3753
lfoot 14.9175 5.33656
ltoes 58.9479
205
root -5.09854 16.514 -38.6218 -159.117 -24.5091 177.636
lowerback 17.0355 1.07012 5.1985
upperback -1.9471 2.74907 3.59725
thorax -11.7141 1.01306 0.302423
lowerneck -17.7247 -1.51764 -1.64426
upperneck -5.15045 -2.64383 -5.47086
head 1.29155 -1.87879 -1.65992
rclavicle -4.6118e-014 6.36111e-014
rhumerus -29.8167 24.617 -92.2382
rradius 99.0907
rwrist -1.13409
rhand -25.5931 5.27699
rfingers 7.12502
rthumb 0.938755 -24.7007
lclavicle -4.6118e-014 6.36111e-014
lhumerus -66.9457 -11.706 93.4695
lradius 60.6733
lwrist 19.0523
lhand -25.6908 -13.5301
lfingers 7.12502
lthumb 0.844341 16.4479
rfemur -35.841 -6.03382 20.2194
rtibia 58.7873
rfoot -33.7995 -16.2743
rtoes -33.7764
lfemur -37.1229 1.26415 -20.1142
ltibia 94.6471
lfoot 13.7532 6.07556
ltoes 59.1822
